# Alias OBJ Model File
# Exported from SketchUp, (c) 2000-2012 Trimble Navigation Limited
# File units = inches

mtllib escerun.mtl

g Mesh1 Model

usemtl FrontColor
v 4335.92 0 -3.01753
vt -4335.92 3.01753
vn 0 -1 -0
v 771.799 0 -3.01753
vt -771.799 3.01753
v 771.799 0 -694.83
vt -771.799 694.83
v 4335.92 0 -694.83
vt -4335.92 694.83
v 4335.92 0 -657.821
vt -4335.92 657.821
v 4335.92 0 -40.0261
vt -4335.92 40.0261
f 1/1/1 2/2/1 3/3/1 4/4/1 5/5/1 6/6/1 

v 199.171 1536.19 -3.01753
vt -199.171 1536.19
vn -8.82136e-17 -1.54934e-16 -1
v 771.799 1536.19 -3.01753
vt -771.799 1536.19
v 823.626 1656.43 -3.01753
vt -823.626 1656.43
v 4387.75 120.244 -3.01753
vt -4387.75 120.244
vt -4335.92 4.67517e-16
vt -771.799 4.67517e-16
v 199.171 0 -3.01753
vt -199.171 4.67517e-16
f 7/7/2 8/8/2 9/9/2 10/10/2 1/11/2 2/12/2 11/13/2 

v 199.171 1536.19 -694.83
vt -199.171 694.83
v 771.799 1536.19 -694.83
v 771.799 1536.19 -657.821
vt -771.799 657.821
v 771.799 1536.19 -40.0261
vt -771.799 40.0261
vt -199.171 3.01753
f 12/14/1 13/3/1 14/15/1 15/16/1 8/2/1 7/17/1 

v 199.171 0 -694.83
vt 199.171 -8.12152e-14
vn -6.67919e-17 -1.16885e-16 1
vt 771.799 -8.12152e-14
vt 4335.92 -8.12152e-14
v 4385.62 115.308 -694.83
vt 4385.62 115.308
v 821.499 1651.5 -694.83
vt 821.499 1651.5
vt 771.799 1536.19
vt 199.171 1536.19
f 16/18/3 3/19/3 4/20/3 17/21/3 18/22/3 13/23/3 12/24/3 

vt 657.821 1716.22
vn 0.918331 -0.395814 -0
vt 694.83 1716.22
vt 694.83 1841.78
v 4385.62 115.308 -657.821
vt 657.821 1841.78
f 5/25/4 4/26/4 17/27/4 19/28/4 

vt 694.83 -100.723
vn 0.395814 0.918331 1.82943e-15
v 821.499 1651.5 -657.821
vt 657.821 -100.723
v 4351.63 129.956 -657.821
vt 657.821 -3944.8
vt 657.821 -3981.81
vt 694.83 -3981.81
f 18/29/5 20/30/5 21/31/5 19/32/5 17/33/5 

vt -694.83 1716.22
vn -0.918331 0.395814 -0
vt -657.821 1716.22
vt -657.821 1841.78
vt -694.83 1841.78
f 13/34/6 14/35/6 20/36/6 18/37/6 

vn -1.43351e-15 -3.3259e-15 1
v 4301.94 14.6485 -657.821
vt 4301.94 14.6485
vt 4351.63 129.956
f 20/22/7 14/23/7 22/38/7 21/39/7 

vn 0.395814 0.918331 -8.0486e-17
vt 40.0261 -100.723
v 4301.94 14.6485 -40.0261
vt 40.0261 -3944.8
f 22/31/8 14/30/8 15/40/8 23/41/8 

vt -4301.94 14.6485
vn -1.93226e-15 -4.48543e-15 -1
v 823.626 1656.43 -40.0261
v 4353.76 134.892 -40.0261
vt -4353.76 134.892
f 23/42/9 15/8/9 24/9/9 25/43/9 

vt -40.0261 1716.22
vn -0.918331 0.395814 2.82102e-15
vt -3.01753 1716.22
vt -3.01753 1847.15
vt -40.0261 1847.15
f 15/44/10 8/45/10 9/46/10 24/47/10 

vn 0.395814 0.918331 -4.57356e-15
vt 3.01753 -100.723
vt 3.01753 -3981.81
v 4387.75 120.244 -40.0261
vt 40.0261 -3981.81
f 25/41/11 24/40/11 9/48/11 10/49/11 26/50/11 

vt 3.01753 1716.22
vt 40.0261 1716.22
vt 40.0261 1847.15
vt 3.01753 1847.15
f 1/51/4 6/52/4 26/53/4 10/54/4 

vt -4335.92 1.62028e-13
vn -2.16291e-15 -4.04806e-15 -1
f 6/55/12 23/42/12 25/43/12 26/10/12 

vn 0.395814 0.918331 -0
f 22/31/13 23/41/13 6/50/13 5/32/13 

v 4301.94 0 -40.0261
vt 40.0261 0
vn 1 0 -0
vt 657.821 14.6485
vt 40.0261 14.6485
f 27/56/14 22/57/14 23/58/14

vn -7.24112e-16 -1.68002e-15 1
vt 4335.92 -1.10515e-12
f 22/38/15 5/59/15 19/21/15 21/39/15 

vt 3.01753 0
vt 694.83 0
vt 694.83 1536.19
vt 3.01753 1536.19
f 11/60/14 16/61/14 12/62/14 7/63/14 

